<svg width="45" height="33" viewBox="0 0 45 33" fill="none" xmlns="http://www.w3.org/2000/svg">
<path d="M45 16.5996C44.9985 7.43186 34.9263 0 22.5 0C10.0737 0 0 7.43297 0 16.6019C0 24.8552 8.16218 31.7014 18.854 32.9867L18.9831 33V21.4H13.2695V16.5996H18.9831V12.944C18.9546 12.7592 18.9396 12.5444 18.9396 12.3274C18.9396 9.09138 22.4955 6.46759 26.8812 6.46759C27.0927 6.46759 27.3028 6.47424 27.5113 6.48531L27.4843 6.4842C29.2833 6.50302 31.0238 6.62037 32.7222 6.82961L32.5212 6.80858V10.8937H29.6824C29.5534 10.8804 29.4048 10.8727 29.2548 10.8727C27.4588 10.8727 26.0019 11.9466 26.0019 13.2728C26.0019 13.3481 26.0064 13.4223 26.0154 13.4965L26.0139 13.4865V16.5996H32.2541L31.2563 21.4H26.0139V33C36.8363 31.7003 44.9985 24.853 45 16.5996Z" fill="black"/>
</svg>
