<svg width="48" height="37" viewBox="0 0 48 37" fill="none" xmlns="http://www.w3.org/2000/svg">
<path fill-rule="evenodd" clip-rule="evenodd" d="M24 27.75C30.6274 27.75 36 23.6086 36 18.5C36 13.3914 30.6274 9.25 24 9.25C17.3726 9.25 12 13.3914 12 18.5C12 23.6086 17.3726 27.75 24 27.75ZM24 24.6667C28.4182 24.6667 32 21.9057 32 18.5C32 15.0942 28.4182 12.3333 24 12.3333C19.5817 12.3333 16 15.0942 16 18.5C16 21.9057 19.5817 24.6667 24 24.6667Z" fill="#0F0F0F"/>
<path d="M36 7.70831C34.8954 7.70831 34 8.39855 34 9.24998C34 10.1014 34.8954 10.7916 36 10.7916C37.1046 10.7916 38 10.1014 38 9.24998C38 8.39855 37.1046 7.70831 36 7.70831Z" fill="#0F0F0F"/>
<path fill-rule="evenodd" clip-rule="evenodd" d="M3.30792 6.59228C2 8.57096 2 11.1612 2 16.3417V20.6584C2 25.8388 2 28.4291 3.30792 30.4077C4.4584 32.1482 6.29416 33.5633 8.55212 34.4501C11.1191 35.4584 14.4794 35.4584 21.2 35.4584H26.8C33.5206 35.4584 36.881 35.4584 39.4478 34.4501C41.7058 33.5633 43.5416 32.1482 44.692 30.4077C46 28.4291 46 25.8388 46 20.6584V16.3417C46 11.1612 46 8.57096 44.692 6.59228C43.5416 4.85177 41.7058 3.4367 39.4478 2.54988C36.881 1.54169 33.5206 1.54169 26.8 1.54169H21.2C14.4794 1.54169 11.1191 1.54169 8.55212 2.54988C6.29416 3.4367 4.4584 4.85177 3.30792 6.59228ZM26.8 4.62502H21.2C17.7737 4.62502 15.4445 4.62743 13.6442 4.7408C11.8905 4.85124 10.9937 5.05143 10.3681 5.29714C8.86278 5.88837 7.63894 6.83175 6.87194 7.99208C6.55318 8.47432 6.29348 9.1656 6.1502 10.5174C6.00312 11.9052 6 13.7006 6 16.3417V20.6584C6 23.2995 6.00312 25.0948 6.1502 26.4826C6.29348 27.8345 6.55318 28.5258 6.87194 29.008C7.63894 30.1683 8.86278 31.1116 10.3681 31.7029C10.9937 31.9486 11.8905 32.1489 13.6442 32.2592C15.4445 32.3726 17.7737 32.375 21.2 32.375H26.8C30.2264 32.375 32.5554 32.3726 34.3558 32.2592C36.1096 32.1489 37.0064 31.9486 37.632 31.7029C39.1372 31.1116 40.361 30.1683 41.128 29.008C41.4468 28.5258 41.7066 27.8345 41.8498 26.4826C41.9968 25.0948 42 23.2995 42 20.6584V16.3417C42 13.7006 41.9968 11.9052 41.8498 10.5174C41.7066 9.1656 41.4468 8.47432 41.128 7.99208C40.361 6.83175 39.1372 5.88837 37.632 5.29714C37.0064 5.05143 36.1096 4.85124 34.3558 4.7408C32.5554 4.62743 30.2264 4.62502 26.8 4.62502Z" fill="#0F0F0F"/>
</svg>
