<svg width="48" height="35" viewBox="0 0 48 35" fill="none" xmlns="http://www.w3.org/2000/svg">
<g clip-path="url(#clip0_1_163)">
<path d="M24 0C10.7438 0 0 7.83398 0 17.5C0 24.6641 5.90625 30.8164 14.3625 33.5234C14.2875 32.3066 14.3438 30.8301 14.775 29.5039C15.2438 28.082 17.8688 19.9746 17.8688 19.9746C17.8688 19.9746 17.1 18.8535 17.1 17.2129C17.1 14.6152 19.1625 12.6875 21.7313 12.6875C23.9062 12.6875 24.975 13.877 24.975 15.3125C24.975 16.9121 23.5688 19.3047 22.8563 21.5195C22.2563 23.3789 24.1313 24.8828 26.6438 24.8828C31.2 24.8828 34.2563 20.6309 34.2563 15.5859C34.2563 11.7578 30.7125 8.88672 24.2625 8.88672C16.9875 8.88672 12.45 12.8379 12.45 17.2676C12.45 18.7988 13.0688 19.8652 14.025 20.6992C14.475 21.082 14.5313 21.2324 14.3625 21.6699C14.25 21.9844 13.9875 22.7637 13.875 23.0781C13.7063 23.5156 13.2188 23.6797 12.675 23.5156C9.31875 22.5176 7.7625 19.8379 7.7625 16.8301C7.7625 11.8535 13.5188 5.89258 24.9188 5.89258C34.0875 5.89258 40.1063 10.7324 40.1063 15.9141C40.1063 22.7773 34.875 27.9043 27.15 27.9043C24.5625 27.9043 22.125 26.8789 21.2813 25.7305C21.2813 25.7305 19.8938 29.7637 19.5938 30.543C19.0875 31.8965 18.0938 33.2363 17.175 34.2891C19.3313 34.7539 21.6187 35.0137 23.9813 35.0137C37.2375 35.0137 47.9813 27.1797 47.9813 17.5137C48 7.83398 37.2563 0 24 0Z" fill="black"/>
</g>
<defs>
<clipPath id="clip0_1_163">
<rect width="48" height="35" fill="white"/>
</clipPath>
</defs>
</svg>
