<svg width="48" height="35" viewBox="0 0 48 35" fill="none" xmlns="http://www.w3.org/2000/svg">
<g filter="url(#filter0_b_1_167)">
<path d="M14.6625 30.1219C9.135 30.1219 4.635 29.2578 2.2575 28.35C2.12596 28.2896 2.02338 28.201 1.96395 28.0963C1.90452 27.9915 1.89118 27.8759 1.92577 27.7654C1.96035 27.655 2.04116 27.555 2.15702 27.4795C2.27288 27.4039 2.41807 27.3565 2.5725 27.3438C6.7318 27.1717 10.7903 26.3433 14.4675 24.9156C11.16 24.2648 7.7925 22.5422 7.125 20.3164C7.09698 20.2231 7.10296 20.1261 7.14234 20.035C7.18172 19.9439 7.25313 19.8619 7.34947 19.7972C7.44581 19.7325 7.56371 19.6873 7.69144 19.6661C7.81917 19.645 7.95227 19.6486 8.0775 19.6766C8.38639 19.7321 8.70479 19.7542 9.0225 19.7422C7.38805 19.0079 6.02497 17.9931 5.0523 16.7862C4.07963 15.5794 3.52695 14.2172 3.4425 12.8188C3.43542 12.7089 3.47392 12.6001 3.55296 12.5064C3.632 12.4128 3.74791 12.3387 3.88558 12.2938C4.02324 12.2489 4.17626 12.2354 4.32467 12.2549C4.47308 12.2744 4.60998 12.326 4.7175 12.4031C5.0775 12.6219 5.45 12.8279 5.835 13.0211C5.11331 11.9238 4.70157 10.7318 4.62427 9.51614C4.54696 8.30046 4.80567 7.08585 5.385 5.94453C5.43273 5.85693 5.5107 5.77981 5.61134 5.72065C5.71199 5.66149 5.8319 5.62231 5.95943 5.6069C6.08697 5.5915 6.2178 5.60039 6.33923 5.63271C6.46067 5.66504 6.56858 5.71971 6.6525 5.79141C12 10.3359 19.56 12.4141 23.4 12.3211C23.2998 11.9242 23.2496 11.5215 23.25 11.118C23.254 9.32956 24.2306 7.61532 25.9656 6.35124C27.7006 5.08715 30.0523 4.37645 32.505 4.375C34.9653 4.42088 37.3295 5.0811 39.2025 6.24531C39.7096 6.16058 40.2103 6.05653 40.7025 5.93359C41.6689 5.6988 42.605 5.40234 43.5 5.04766C43.6464 4.98924 43.8153 4.96808 43.98 4.98753C44.1447 5.00697 44.2958 5.06592 44.4094 5.15503C44.523 5.24414 44.5926 5.35834 44.6072 5.47954C44.6218 5.60074 44.5806 5.72203 44.49 5.82422C43.6294 6.72999 42.6767 7.58735 41.64 8.38906C42.8103 8.1989 43.9627 7.95412 45.09 7.65625C45.2415 7.60694 45.4111 7.59564 45.5723 7.62412C45.7336 7.6526 45.8773 7.71925 45.981 7.81365C46.0848 7.90804 46.1426 8.02485 46.1456 8.14579C46.1486 8.26673 46.0965 8.38498 45.9975 8.48203C44.9442 9.51009 43.7056 10.4298 42.315 11.2164C42.2025 13.8141 39.4275 25.5773 26.205 28.8695H26.1225C22.4081 29.6967 18.5463 30.1187 14.6625 30.1219ZM5.7525 28.1695C12.3267 29.4128 19.2463 29.2935 25.7325 27.825C38.4825 24.6094 40.9125 12.5781 40.815 10.9375C40.809 10.848 40.8332 10.7588 40.8855 10.6778C40.9378 10.5967 41.0166 10.5263 41.115 10.4727C41.7944 10.1141 42.4385 9.72119 43.0425 9.29688C41.88 9.5375 40.71 9.70156 40.4025 9.47734C40.3262 9.42155 40.2674 9.35439 40.23 9.28047C40.1241 9.07832 40.0014 8.88108 39.8625 8.68984C39.7805 8.573 39.7589 8.43855 39.8016 8.31104C39.8442 8.18353 39.9484 8.07147 40.095 7.99531C40.5934 7.65414 41.0594 7.28872 41.49 6.90156L41.175 6.97813C40.4955 7.14912 39.8015 7.28795 39.0975 7.39375C38.9605 7.41627 38.8175 7.41026 38.6849 7.37642C38.5523 7.34258 38.4354 7.28227 38.3475 7.20234C37.4475 6.38203 34.7475 5.46875 32.505 5.46875C31.3067 5.46654 30.124 5.66746 29.0504 6.05562C27.9768 6.44379 27.0416 7.0086 26.3187 7.70546C25.5957 8.40232 25.1048 9.21216 24.8846 10.0711C24.6644 10.93 24.7211 11.8145 25.05 12.6547C25.0789 12.7284 25.0862 12.8058 25.0715 12.8817C25.0567 12.9577 25.0202 13.0305 24.9643 13.0955C24.9084 13.1605 24.8344 13.2162 24.7471 13.2589C24.6598 13.3017 24.5611 13.3306 24.4575 13.3438C20.7075 13.825 12.5325 11.9492 6.405 7.22969C5.475 9.96406 6.8925 13.0758 9.0075 14.3391C9.13305 14.4242 9.2148 14.5382 9.23912 14.6619C9.26344 14.7857 9.22887 14.9118 9.14117 15.0192C9.05347 15.1266 8.91794 15.2089 8.75714 15.2523C8.59635 15.2958 8.42001 15.2977 8.2575 15.2578C7.18822 14.9079 6.16411 14.4888 5.1975 14.0055C5.895 16.3734 8.1975 18.3422 11.6925 19.518C11.8277 19.5638 11.941 19.638 12.0181 19.7311C12.0952 19.8241 12.1325 19.9318 12.1252 20.0404C12.118 20.149 12.0665 20.2535 11.9774 20.3406C11.8883 20.4278 11.7656 20.4936 11.625 20.5297C10.7761 20.7071 9.89802 20.7991 9.015 20.8031C10.2375 22.4984 13.6275 23.8219 16.4175 24.0352C16.5586 24.0454 16.6928 24.0846 16.8046 24.1483C16.9163 24.2119 17.0011 24.2973 17.049 24.3946C17.0969 24.4919 17.1059 24.5972 17.0752 24.6981C17.0444 24.799 16.975 24.8915 16.875 24.9648C15.24 26.157 10.5 27.5898 5.7525 28.1695Z" fill="black"/>
</g>
<defs>
<filter id="filter0_b_1_167" x="-4" y="-4" width="56" height="43" filterUnits="userSpaceOnUse" color-interpolation-filters="sRGB">
<feFlood flood-opacity="0" result="BackgroundImageFix"/>
<feGaussianBlur in="BackgroundImageFix" stdDeviation="2"/>
<feComposite in2="SourceAlpha" operator="in" result="effect1_backgroundBlur_1_167"/>
<feBlend mode="normal" in="SourceGraphic" in2="effect1_backgroundBlur_1_167" result="shape"/>
</filter>
</defs>
</svg>
