<svg width="48" height="25" viewBox="0 0 48 25" fill="none" xmlns="http://www.w3.org/2000/svg">
<path fill-rule="evenodd" clip-rule="evenodd" d="M19.1748 16.7757V6.95502C23.9557 8.59553 27.6585 10.1803 32.0377 11.8889C28.4258 13.3496 23.9557 14.9886 19.1748 16.7757ZM45.8187 2.07075C44.994 1.27842 43.5884 0.661656 42.092 0.457466C37.6936 -0.151622 10.2537 -0.153354 5.85772 0.457466C4.65772 0.621511 3.58916 1.01803 2.67124 1.6341C-1.19649 4.25193 0.0154703 18.2905 0.947743 20.5645C1.33977 21.5488 1.84657 22.2587 2.48481 22.7247C3.30712 23.3407 4.433 23.7649 5.72623 23.9551C9.34774 24.5014 28.0051 24.8068 42.0155 24.0372C43.3063 23.8731 44.4489 23.4353 45.3501 22.793C48.9262 20.1857 48.6824 5.35873 45.8187 2.07075Z" fill="black"/>
</svg>
